<svg width="72" height="70" viewBox="0 0 72 70" fill="none" xmlns="http://www.w3.org/2000/svg">
<path d="M12.75 0H59.25C66.3 0 72 5.68376 72 12.7137V57.2863C72 64.3162 66.3 70 59.25 70H12.75C5.7 70 0 64.3162 0 57.2863V12.7137C0 5.68376 5.7 0 12.75 0Z" fill="#00005B"/>
<path d="M28.92 41.8803H17.76L15.48 48.9402C15.42 49.2094 15.18 49.3889 14.91 49.359H9.27C8.94 49.359 8.85 49.1795 8.94 48.8205L18.6 21.2094C18.69 20.9103 18.78 20.641 18.9 20.2821C19.02 19.6538 19.08 18.9957 19.08 18.3376C19.05 18.188 19.17 18.0385 19.32 18.0085H27.09C27.3 18.0085 27.45 18.0983 27.48 18.2479L38.43 48.9103C38.52 49.2393 38.43 49.3889 38.13 49.3889H31.86C31.65 49.4188 31.44 49.2692 31.38 49.0598L28.92 41.8803ZM19.5 35.9274H27.12C26.94 35.2991 26.7 34.5513 26.43 33.7735C26.16 32.9658 25.89 32.0983 25.62 31.2009C25.32 30.2735 25.05 29.3761 24.75 28.4487C24.45 27.5214 24.18 26.6538 23.94 25.7863C23.7 24.9487 23.49 24.1709 23.28 23.453H23.22C22.95 24.7393 22.62 26.0256 22.2 27.312C21.75 28.7479 21.3 30.2436 20.82 31.7393C20.43 33.265 19.95 34.6709 19.5 35.9274ZM56.22 39.1282H46.71C46.83 40.0556 47.13 40.9829 47.64 41.7906C48.18 42.5983 48.93 43.2265 49.83 43.5855C51.03 44.094 52.35 44.3632 53.67 44.3333C54.72 44.3034 55.77 44.2137 56.79 44.0043C57.72 43.8846 58.62 43.6453 59.46 43.3162C59.61 43.1966 59.7 43.2564 59.7 43.5556V48.1325C59.7 48.2521 59.67 48.3718 59.64 48.4915C59.58 48.5812 59.52 48.641 59.43 48.7009C58.47 49.1197 57.48 49.4188 56.43 49.5983C55.02 49.8675 53.61 49.9872 52.17 49.9573C49.89 49.9573 47.97 49.5983 46.41 48.9103C44.94 48.2821 43.65 47.2949 42.63 46.0684C41.67 44.9017 40.98 43.5855 40.56 42.1496C40.14 40.7436 39.93 39.2778 39.93 37.7821C39.93 36.1667 40.17 34.5812 40.68 33.0256C41.16 31.5299 41.91 30.1538 42.93 28.9274C43.92 27.7308 45.15 26.7735 46.56 26.0855C47.97 25.3974 49.65 25.1581 51.57 25.1581C53.16 25.1282 54.75 25.4274 56.22 26.0855C57.45 26.6239 58.53 27.4316 59.37 28.4786C60.15 29.4957 60.78 30.6325 61.17 31.8889C61.56 33.0855 61.74 34.312 61.74 35.5385C61.74 36.2564 61.71 36.8846 61.68 37.453C61.62 38.0214 61.59 38.4402 61.56 38.7094C61.53 38.9188 61.35 39.0983 61.14 39.0983C60.96 39.0983 60.63 39.1282 60.15 39.1581C59.67 39.2179 59.1 39.2479 58.41 39.2479C57.72 39.2479 57 39.1282 56.22 39.1282ZM46.71 34.7607H53.04C53.82 34.7607 54.39 34.7607 54.75 34.7308C54.99 34.7009 55.23 34.641 55.44 34.4915V34.1923C55.44 33.8034 55.38 33.4444 55.26 33.0855C54.72 31.4103 53.13 30.2735 51.36 30.3333C49.71 30.2436 48.15 31.1111 47.37 32.6068C47.01 33.2949 46.8 34.0128 46.71 34.7607Z" fill="#9999FF"/>
</svg>
