<svg width="62" height="70" viewBox="0 0 62 70" fill="none" xmlns="http://www.w3.org/2000/svg">
<path d="M5.63636 62.8906L0 0H62L56.3636 62.8906L30.9313 70" fill="#E34F26"/>
<path d="M31.0687 64.5312L51.5521 58.9258L56.3636 5.05859H31.0687" fill="#EF652A"/>
<path d="M31.0687 28.4375H20.7583L20.071 20.5078H31.0687V12.8516H11.5477L13.6098 36.2305H31.0687V28.4375ZM30.9313 48.5352L22.2705 46.2109L21.7206 40.0586H14.0222L14.9845 52.2266L30.9313 56.6016V48.5352Z" fill="#EBEBEB"/>
<path d="M30.9313 28.4375V36.2305H40.5543L39.592 46.2109L30.9313 48.5352V56.6016L46.878 52.2266L49.0776 28.4375H30.9313ZM30.9313 12.8516V20.5078H49.765L50.4523 12.8516H30.9313Z" fill="#CBD5E1"/>
</svg>
