<svg width="72" height="70" viewBox="0 0 72 70" fill="none" xmlns="http://www.w3.org/2000/svg">
<path d="M59.4 0H12.6C5.64121 0 0 5.67363 0 12.6724V57.3276C0 64.3264 5.64121 70 12.6 70H59.4C66.3588 70 72 64.3264 72 57.3276V12.6724C72 5.67363 66.3588 0 59.4 0Z" fill="#330000"/>
<path d="M36.237 43.4483H25.5L22.728 51.4983C22.696 51.7638 22.529 51.8966 22.227 51.8966H17.187C16.851 51.8966 16.734 51.7306 16.836 51.3987L26.562 22.3457C26.8367 21.4611 26.9723 20.5388 26.964 19.6121C26.9586 19.5712 26.9626 19.5295 26.9757 19.4904C26.9889 19.4513 27.0108 19.4158 27.0399 19.3866C27.0689 19.3574 27.1042 19.3354 27.1431 19.3221C27.1819 19.3089 27.2233 19.3049 27.264 19.3103H34.32C34.524 19.3103 34.641 19.3948 34.674 19.5578L45.558 51.45C45.66 51.7517 45.576 51.8966 45.306 51.8966H39.663C39.5586 51.9028 39.4548 51.8774 39.3649 51.8236C39.275 51.7698 39.2033 51.6901 39.159 51.5948L36.237 43.4483ZM26.7 38.0172H35.064C34.863 37.5737 31.101 25.3659 30.831 24.3371H30.783L26.7 38.0172ZM51.573 25.3448C51.1 25.3652 50.6277 25.2899 50.184 25.1236C49.7404 24.9572 49.3344 24.7031 48.99 24.3763C48.653 24.0317 48.391 23.6204 48.2205 23.1685C48.0501 22.7166 47.975 22.234 48 21.7513C47.9777 21.2625 48.0565 20.7744 48.2316 20.3178C48.4067 19.8613 48.6741 19.4463 49.017 19.0991C49.3642 18.7668 49.774 18.5075 50.2221 18.3365C50.6703 18.1655 51.148 18.0863 51.627 18.1034C52.1069 18.0783 52.5868 18.1538 53.0361 18.3253C53.4854 18.4967 53.8944 18.7602 54.237 19.0991C54.565 19.4545 54.8191 19.8721 54.9845 20.3275C55.1498 20.783 55.2231 21.267 55.2 21.7513C55.225 22.234 55.1499 22.7166 54.9795 23.1685C54.809 23.6204 54.547 24.0317 54.21 24.3763C53.8567 24.7061 53.4414 24.9617 52.9886 25.128C52.5358 25.2944 52.0545 25.3681 51.573 25.3448ZM48.6 51.444V28.1629C48.5919 28.108 48.5967 28.0518 48.6141 27.9991C48.6314 27.9463 48.6608 27.8984 48.6999 27.8591C48.7389 27.8198 48.7866 27.7902 48.8391 27.7728C48.8915 27.7553 48.9473 27.7505 49.002 27.7586H54.198C54.2525 27.7511 54.3081 27.7564 54.3602 27.7741C54.4124 27.7918 54.4598 27.8213 54.4987 27.8605C54.5376 27.8996 54.567 27.9473 54.5846 27.9998C54.6022 28.0522 54.6074 28.1081 54.6 28.1629V51.4922C54.6081 51.5472 54.6033 51.6033 54.5859 51.6561C54.5686 51.7089 54.5392 51.7568 54.5001 51.7961C54.4611 51.8354 54.4134 51.865 54.3609 51.8824C54.3085 51.8998 54.2527 51.9047 54.198 51.8966H49.05C48.9889 51.9051 48.9267 51.8992 48.8683 51.8795C48.8098 51.8598 48.7567 51.8267 48.7131 51.7828C48.6695 51.739 48.6366 51.6855 48.617 51.6268C48.5973 51.568 48.5915 51.5054 48.6 51.444Z" fill="#FF9A00"/>
</svg>
