<svg width="71" height="71" viewBox="0 0 71 71" fill="none" xmlns="http://www.w3.org/2000/svg">
<path d="M0 10C0 4.47715 4.47715 0 10 0H61C66.5228 0 71 4.47715 71 10V61C71 66.5228 66.5228 71 61 71H10C4.47715 71 0 66.5228 0 61V10Z" fill="#F7DF1E"/>
<path d="M20 60.7364L25.3566 57.4946C26.3902 59.3269 27.3303 60.8773 29.5854 60.8773C31.7469 60.8773 33.11 60.0318 33.11 56.7429V34.3763H39.688V56.8359C39.688 63.6491 35.6942 66.7504 29.8673 66.7504C24.605 66.7504 21.5507 64.0256 20 60.7364ZM43.2611 60.0315L48.6171 56.9305C50.0273 59.2331 51.8599 60.9246 55.1017 60.9246C57.8276 60.9246 59.5656 59.5618 59.5656 57.6821C59.5656 55.4268 57.78 54.6279 54.7728 53.3126L53.1286 52.6071C48.3825 50.5873 45.2345 48.0498 45.2345 42.6931C45.2345 37.7592 48.9934 34 54.8671 34C59.0491 34 62.0563 35.4569 64.2176 39.2629L59.0956 42.5523C57.9676 40.5319 56.7464 39.7332 54.8668 39.7332C52.9402 39.7332 51.7185 40.9549 51.7185 42.5523C51.7185 44.5257 52.9402 45.325 55.7593 46.5467L57.4038 47.2513C62.9956 49.648 66.1437 52.0912 66.1437 57.5884C66.1437 63.5094 61.492 66.7513 55.2425 66.7513C49.1342 66.7513 45.1874 63.8378 43.2611 60.0315Z" fill="black"/>
</svg>
