<svg width="72" height="70" viewBox="0 0 72 70" fill="none" xmlns="http://www.w3.org/2000/svg">
<path d="M59.4 0H12.6C5.64121 0 0 5.67363 0 12.6724V57.3276C0 64.3264 5.64121 70 12.6 70H59.4C66.3588 70 72 64.3264 72 57.3276V12.6724C72 5.67363 66.3588 0 59.4 0Z" fill="#001E36"/>
<path d="M15 51.5586V18.7069C14.9941 18.6611 14.9987 18.6146 15.0136 18.5709C15.0284 18.5272 15.0529 18.4875 15.0854 18.4548C15.1178 18.4222 15.1573 18.3975 15.2008 18.3826C15.2442 18.3677 15.2905 18.363 15.336 18.369C17.769 18.3056 20.64 18.1034 24.384 18.1034C28.8 18.1034 32.04 19.0297 34.104 21.0241C35.1067 21.9677 35.9006 23.1131 36.434 24.3857C36.9675 25.6583 37.2284 27.0296 37.2 28.4103C37.2 32.0491 35.92 34.7526 33.36 36.5207C30.8 38.2888 27.58 39.1739 23.7 39.1759L21 39.2241V51.5103C21.0075 51.5628 21.0028 51.6163 20.9862 51.6667C20.9695 51.717 20.9415 51.7627 20.9042 51.8002C20.8669 51.8377 20.8215 51.8659 20.7714 51.8826C20.7214 51.8994 20.6682 51.9041 20.616 51.8966H15.384C15.129 51.8966 15 51.7849 15 51.5586ZM21 22.8164V34.6983C21 34.6983 22.368 34.644 24 34.644C26.146 34.644 27.882 34.1693 29.208 33.2198C30.534 32.2704 31.198 30.7155 31.2 28.5552C31.2 26.6563 30.616 25.192 29.448 24.1621C28.28 23.1322 26.592 22.6213 24.384 22.6293C23.841 22.6293 23.304 22.6293 22.776 22.6534C22.248 22.6776 21.816 22.6776 21.48 22.6776C21.144 22.6776 20.964 22.6655 21 22.8164ZM57 44.0517C57 47.7478 54.6 49.4828 54.6 49.4828V49.4647C54.456 49.6065 54.3 49.7392 54.147 49.869C52.495 51.2207 50.262 51.8966 47.448 51.8966C44.634 51.8966 42.334 51.3756 40.548 50.3336C40.4492 50.2991 40.3654 50.2312 40.3107 50.1416C40.2561 50.0519 40.2339 49.946 40.248 49.8418V45.2948C40.2435 45.2435 40.2522 45.1918 40.2732 45.1448C40.2942 45.0978 40.3269 45.057 40.368 45.0263C40.4006 45.0027 40.4407 44.9921 40.4806 44.9965C40.5205 45.001 40.5574 45.0202 40.584 45.0504C42.4878 46.555 44.8348 47.3807 47.256 47.3978C48.374 47.3978 49.23 47.1967 49.824 46.7944C50.0978 46.6302 50.3247 46.3973 50.4824 46.1187C50.6401 45.84 50.7234 45.525 50.724 45.2043C50.7304 44.8807 50.6697 44.5593 50.5458 44.2606C50.4218 43.9618 50.2373 43.6924 50.004 43.4694C49.524 42.9947 48.58 42.4807 47.172 41.9276C44.61 40.9218 42.826 39.8376 41.82 38.675C40.7553 37.5101 40.1754 35.9787 40.2 34.3966C40.2006 33.4123 40.4108 32.4396 40.8165 31.5439C41.2222 30.6482 41.814 29.8503 42.552 29.2039C44.054 27.8341 46.198 27.1491 48.984 27.1491C51.584 27.1491 53.584 27.5082 54.984 28.2263C55.143 28.3228 55.224 28.528 55.224 28.8599V32.9181C55.224 33.3103 55.08 33.4069 54.792 33.2198C53.1231 32.1171 51.1728 31.523 49.176 31.5091C48.054 31.5091 47.232 31.7233 46.704 32.1457C46.4637 32.3172 46.2669 32.5431 46.1293 32.8051C45.9918 33.0672 45.9173 33.358 45.912 33.6543C45.9111 33.9442 45.9704 34.2311 46.0861 34.4966C46.2019 34.7621 46.3714 35.0003 46.584 35.1961C47.032 35.6366 47.976 36.1496 49.416 36.7349C51.928 37.7226 53.728 38.7605 54.816 39.8487L54.843 39.8759C55.962 40.9108 57 42.3349 57 44.0517Z" fill="#31A8FF"/>
</svg>
