<svg width="72" height="70" viewBox="0 0 72 70" fill="none" xmlns="http://www.w3.org/2000/svg">
<path d="M59.4 0H12.6C5.64121 0 0 5.67363 0 12.6724V57.3276C0 64.3264 5.64121 70 12.6 70H59.4C66.3588 70 72 64.3264 72 57.3276V12.6724C72 5.67363 66.3588 0 59.4 0Z" fill="#00005B"/>
<path d="M15.6 51.5586V18.7069C15.5941 18.6611 15.5987 18.6146 15.6136 18.5709C15.6284 18.5272 15.6529 18.4875 15.6854 18.4548C15.7178 18.4222 15.7573 18.3975 15.8008 18.3826C15.8442 18.3677 15.8905 18.363 15.936 18.369C18.369 18.3056 21.24 18.1034 24.984 18.1034C29.4 18.1034 32.64 19.0297 34.704 21.0241C35.7067 21.9677 36.5006 23.1131 37.034 24.3857C37.5675 25.6583 37.8284 27.0296 37.8 28.4103C37.8 32.0491 36.52 34.7526 33.96 36.5207C31.4 38.2888 28.18 39.1739 24.3 39.1759L21.6 39.2241V51.5103C21.6075 51.5628 21.6028 51.6163 21.5862 51.6667C21.5695 51.717 21.5415 51.7627 21.5042 51.8002C21.4669 51.8377 21.4215 51.8659 21.3714 51.8826C21.3214 51.8994 21.2682 51.9041 21.216 51.8965H15.984C15.729 51.8965 15.6 51.7849 15.6 51.5586ZM21.6 22.8164V34.6983C21.6 34.6983 22.968 34.644 24.6 34.644C26.746 34.644 28.482 34.1693 29.808 33.2198C31.134 32.2704 31.798 30.7155 31.8 28.5552C31.8 26.6563 31.216 25.192 30.048 24.1621C28.88 23.1322 27.192 22.6213 24.984 22.6293C24.441 22.6293 23.904 22.6293 23.376 22.6534C22.848 22.6776 22.416 22.6776 22.08 22.6776C21.744 22.6776 21.564 22.6655 21.6 22.8164ZM42.3 27.7586H47.4C47.5229 27.7545 47.6436 27.7917 47.7431 27.8644C47.8425 27.9371 47.915 28.0411 47.949 28.1599C48.3311 28.9817 48.5521 29.8699 48.6 30.7759C50.526 28.2716 52.896 27.1552 56.052 27.1552C56.0996 27.1466 56.1485 27.1498 56.1946 27.1644C56.2407 27.1789 56.2826 27.2045 56.3168 27.2389C56.351 27.2732 56.3764 27.3154 56.3909 27.3618C56.4053 27.4081 56.4085 27.4573 56.4 27.5052V32.8336C56.4 33.1022 56.268 33.2168 56.001 33.1836C53.112 33.0177 50.82 33.3978 49.161 35.0664C48.994 35.207 48.858 35.381 48.7614 35.5774C48.6648 35.7737 48.6099 35.9881 48.6 36.2069V51.5465C48.6 51.7789 48.468 51.8965 48.201 51.8965H43.047C42.747 51.8965 42.6 51.7638 42.6 51.4953V34.3965C42.6 30.3474 42.3 29.7711 42 28.1086C41.967 27.8763 42.066 27.7586 42.3 27.7586Z" fill="#9999FF"/>
</svg>
