<svg width="70" height="70" viewBox="0 0 70 70" fill="none" xmlns="http://www.w3.org/2000/svg">
<path d="M34.9458 40.8111C38.1786 40.8111 40.7994 38.1903 40.7994 34.9574C40.7994 31.7246 38.1786 29.1038 34.9458 29.1038C31.7129 29.1038 29.0921 31.7246 29.0921 34.9574C29.0921 38.1903 31.7129 40.8111 34.9458 40.8111Z" fill="#00D8FF"/>
<path fill-rule="evenodd" clip-rule="evenodd" d="M34.9458 24.4567C27.1278 24.4567 19.8094 25.5949 14.4661 27.4564C14.4661 27.4564 14.466 27.4565 14.466 27.4565C11.3074 28.5573 8.86824 29.9111 7.24724 31.2976C5.59466 32.7112 4.97289 33.9931 4.97289 34.9555C4.97289 35.9583 5.65009 37.3363 7.41926 38.8513C9.1489 40.3324 11.7386 41.7759 15.0636 42.9122C20.308 44.7044 27.379 45.5723 34.9458 45.5723C42.3079 45.5723 49.2351 44.6498 54.4342 42.9273L54.4343 42.9273C57.883 41.7852 60.5756 40.3476 62.376 38.8653C64.2184 37.3485 64.9167 35.9699 64.9167 34.9555C64.9167 33.9998 64.2712 32.7072 62.552 31.2727C60.8715 29.8705 58.3598 28.5063 55.1521 27.4021C55.152 27.4021 55.152 27.4021 55.152 27.4021C49.8262 25.5694 42.6852 24.4567 34.9458 24.4567ZM13.5448 24.8123C19.251 22.8243 26.8936 21.6567 34.9458 21.6567C42.9218 21.6567 50.382 22.7995 56.0632 24.7545L56.0633 24.7545C59.4868 25.933 62.3296 27.4405 64.3459 29.1227C66.3234 30.7728 67.7168 32.7774 67.7168 34.9555C67.7168 37.2064 66.2543 39.2992 64.1557 41.027C62.0152 42.7892 58.9868 44.3693 55.3148 45.5853C49.7467 47.43 42.5021 48.3723 34.9458 48.3723C27.215 48.3723 19.8047 47.4914 14.1581 45.5618L14.1581 45.5618C10.5945 44.3439 7.66522 42.7483 5.59802 40.9781C3.57035 39.2418 2.17285 37.1562 2.17285 34.9555C2.17285 32.8092 3.4981 30.8199 5.42716 29.1698C7.38777 27.4928 10.1648 25.9903 13.5446 24.8124L13.5448 24.8123Z" fill="#00D8FF"/>
<path fill-rule="evenodd" clip-rule="evenodd" d="M45.4976 9.23294C43.4434 9.98813 41.0066 11.4823 38.4473 13.7094L38.4472 13.7094C34.1979 17.4065 29.6655 23.0365 25.7997 29.7412L25.7994 29.7416C21.8923 36.5133 19.2216 43.4201 18.1665 48.9838C17.5431 52.2706 17.4978 55.06 17.8894 57.157C18.2885 59.2946 19.0883 60.4736 19.922 60.9546C20.7901 61.4553 22.3223 61.5572 24.5189 60.7815C26.6662 60.0232 29.2107 58.501 31.8557 56.1883C36.0271 52.5404 40.3124 46.8478 44.0919 40.2935L44.092 40.2934C47.7711 33.9146 50.4319 27.4547 51.5379 22.0893C52.2715 18.53 52.3711 15.4786 51.9865 13.1782C51.5928 10.824 50.7475 9.53063 49.8691 9.02414C49.0415 8.54693 47.5993 8.46035 45.4976 9.23294ZM44.5315 6.60486C46.9488 5.71624 49.3813 5.5107 51.2677 6.59846C53.2175 7.7227 54.2998 10.0351 54.7481 12.7164C55.2055 15.4513 55.0614 18.8648 54.2803 22.6545L54.2803 22.6545C53.0958 28.4006 50.2937 35.1452 46.5175 41.6924C42.656 48.389 38.1899 54.3688 33.6989 58.2962L33.6988 58.2963C30.8636 60.7752 28.0176 62.5155 25.4512 63.4218C22.934 64.3107 20.429 64.4793 18.5231 63.3802L18.523 63.3801C16.664 62.3077 15.6029 60.1663 15.1369 57.671C14.6633 55.1349 14.7485 51.9788 15.4155 48.4621C16.5424 42.5198 19.3499 35.3169 23.3739 28.3426C27.3581 21.4326 32.0762 15.541 36.6093 11.597C39.3408 9.2201 42.0669 7.51088 44.5315 6.60486Z" fill="#00D8FF"/>
<path fill-rule="evenodd" clip-rule="evenodd" d="M24.5361 9.34563C22.3004 8.51117 20.7577 8.59759 19.8796 9.10603L19.8791 9.10635C19.0524 9.58454 18.2572 10.7903 17.8771 12.997C17.5056 15.154 17.5833 18.0114 18.2346 21.3408C18.2346 21.3408 18.2346 21.3409 18.2346 21.341C19.3166 26.8689 21.9308 33.606 25.8082 40.3051C29.7248 47.071 34.3758 52.8341 38.6638 56.5253C38.6639 56.5254 38.664 56.5255 38.6641 56.5256C41.2003 58.7076 43.5941 60.1399 45.6061 60.8477C47.6573 61.5693 49.0783 61.465 49.9116 60.9828L49.9118 60.9826C50.7792 60.4809 51.6328 59.2048 52.0578 56.9145C52.4733 54.6756 52.4252 51.7109 51.7427 48.2637L51.7427 48.2634C50.6678 42.8294 47.8747 36.2749 44.0834 29.7259L44.0834 29.7258C40.3946 23.3525 36.1283 17.821 32.0315 14.1838L32.0315 14.1837C29.3144 11.7712 26.721 10.1611 24.5361 9.34563ZM25.5152 6.72236C28.1128 7.69189 30.9977 9.52128 33.8906 12.09C38.2783 15.9855 42.7208 21.782 46.5068 28.3232C50.3798 35.0134 53.3319 41.8683 54.4894 47.7198C54.4894 47.7199 54.4895 47.72 54.4895 47.7201C55.221 51.4148 55.3074 54.7495 54.8108 57.4254C54.3237 60.0502 53.2186 62.3045 51.3139 63.4063C49.4565 64.4812 47.0715 64.3314 44.6769 63.4891C42.2432 62.6329 39.5514 60.9827 36.8376 58.6479L36.8375 58.6478L36.8374 58.6477C32.2579 54.7056 27.4187 48.6764 23.3848 41.7078L23.3848 41.7078C19.3889 34.8039 16.6409 27.7755 15.4867 21.8787L15.4866 21.8785C14.7915 18.3252 14.672 15.1095 15.1177 12.5217C15.5549 9.98399 16.5914 7.77367 18.4765 6.68292C18.4767 6.68282 18.4769 6.68271 18.4771 6.68261C20.4252 5.55486 22.9687 5.7719 25.5152 6.72236Z" fill="#00D8FF"/>
</svg>
