<svg width="53" height="55" viewBox="0 0 53 55" fill="none" xmlns="http://www.w3.org/2000/svg">
<path d="M48.8037 31.1202C48.8037 29.1139 48.6376 27.6498 48.2781 26.1315H24.8999V35.1872H38.6223C38.3458 37.4376 36.8518 40.8268 33.5317 43.1042L33.4852 43.4073L40.877 49.0191L41.3891 49.0692C46.0923 44.8124 48.8037 38.5492 48.8037 31.1202Z" fill="#4285F4"/>
<path d="M24.8999 54.9799C31.6227 54.9799 37.2666 52.8107 41.3891 49.0692L33.5317 43.1042C31.4291 44.5412 28.6071 45.5443 24.8999 45.5443C18.3153 45.5443 12.7267 41.2877 10.7345 35.4042L10.4425 35.4285L2.75644 41.2578L2.65592 41.5316C6.75052 49.5028 15.1612 54.9799 24.8999 54.9799Z" fill="#34A853"/>
<path d="M10.7345 35.4042C10.2088 33.8859 9.90463 32.2589 9.90463 30.578C9.90463 28.8969 10.2088 27.2702 10.7068 25.7518L10.6929 25.4285L2.91055 19.5055L2.65592 19.6242C0.968338 22.932 0 26.6466 0 30.578C0 34.5094 0.968338 38.2238 2.65592 41.5316L10.7345 35.4042Z" fill="#FBBC05"/>
<path d="M24.8999 15.6115C29.5754 15.6115 32.7293 17.5907 34.5277 19.2447L41.555 12.5206C37.2392 8.58923 31.6227 6.17615 24.8999 6.17615C15.1612 6.17615 6.75052 11.653 2.65592 19.6242L10.7068 25.7518C12.7267 19.8683 18.3153 15.6115 24.8999 15.6115Z" fill="#EB4335"/>
<circle cx="40.5598" cy="12.7627" r="8.00994" fill="white"/>
<path fill-rule="evenodd" clip-rule="evenodd" d="M38.932 1.51891C39.7737 0.490767 41.346 0.490764 42.1878 1.51891L43.2311 2.79331L44.7719 2.21134C46.015 1.74182 47.3766 2.52797 47.5915 3.83926L47.858 5.46461L49.4834 5.731C50.7946 5.94591 51.5808 7.30756 51.1113 8.55063L50.5292 10.0914L51.8037 11.1348C52.8318 11.9766 52.8318 13.5488 51.8037 14.3906L50.5292 15.4341L51.1113 16.9748C51.5808 18.2179 50.7946 19.5795 49.4834 19.7944L47.858 20.0608L47.5916 21.6862C47.3766 22.9974 46.015 23.7836 44.7719 23.3141L43.2311 22.7321L42.1878 24.0065C41.346 25.0347 39.7737 25.0347 38.932 24.0065L37.8886 22.7321L36.3478 23.3141C35.1047 23.7836 33.743 22.9974 33.5281 21.6862L33.2617 20.0608L31.6364 19.7944C30.3251 19.5795 29.5389 18.2179 30.0085 16.9748L30.5904 15.4341L29.316 14.3906C28.2879 13.5488 28.2879 11.9766 29.316 11.1348L30.5904 10.0914L30.0085 8.55063C29.5389 7.30756 30.3251 5.94591 31.6364 5.731L33.2617 5.46461L33.5281 3.83926C33.743 2.52797 35.1047 1.74182 36.3478 2.21134L37.8886 2.79331L38.932 1.51891ZM39.7262 17.1884L47.0899 9.82471L45.6023 8.33701L38.9824 14.9569L35.5184 11.4929L34.0307 12.9806L38.2385 17.1884C38.4358 17.3858 38.7034 17.4965 38.9824 17.4965C39.2613 17.4965 39.529 17.3858 39.7262 17.1884Z" fill="#2196F3"/>
</svg>
