<?xml version="1.0" encoding="utf-8"?>
<!-- Generator: Adobe Illustrator 16.0.0, SVG Export Plug-In . SVG Version: 6.00 Build 0)  -->
<!DOCTYPE svg PUBLIC "-//W3C//DTD SVG 1.1//EN" "http://www.w3.org/Graphics/SVG/1.1/DTD/svg11.dtd">
<svg version="1.1" id="Layer_1" xmlns="http://www.w3.org/2000/svg" xmlns:xlink="http://www.w3.org/1999/xlink" x="0px" y="0px"
	 width="512px" height="512px" fill="#C5D3D9" viewBox="0 0 500 500" enable-background="new 0 0 500 500" xml:space="preserve">
<g>
	<path fill-rule="evenodd" clip-rule="evenodd" d="M380.466,495.577c-86.975,0-173.95,0-260.923,0
		c-6.118-3.492-8.085-7.056-6.741-12.197c1.225-4.692,5.007-6.966,11.651-6.988c3.517-0.01,7.032,0,10.548,0
		c5.68,0,11.36,0,17.179,0c0-1.704-0.009-2.658,0.001-3.612c0.216-19.763,12.005-31.411,31.854-31.461
		c5.754-0.015,11.521-0.247,17.257,0.085c3.694,0.213,4.888-1.281,5.632-4.645c2.795-12.617,5.898-25.167,8.865-37.746
		c0.382-1.624,0.641-3.275,1.044-5.359c-2.501,0-4.395,0-6.286,0c-47.149,0-94.299,0.063-141.447-0.027
		c-24.812-0.045-41.24-16.415-41.262-41.159c-0.065-81.03-0.06-162.064,0.065-243.096c0.007-4.877,0.649-9.962,2.121-14.593
		c5.314-16.705,19.914-26.391,39.086-26.394c84.228-0.019,168.455-0.029,252.684,0.067c3.422,0.003,5.474-0.974,7.368-3.879
		c8.813-13.512,17.916-26.833,26.835-40.275c6.676-10.063,15.704-16.61,27.617-19.037c0.583-0.119,1.101-0.551,1.648-0.836
		c4.157,0,8.313,0,12.471,0c0.721,0.293,1.418,0.699,2.169,0.862c21.643,4.724,35.585,23.283,33.37,45.223
		c-0.594,5.868-2.836,11.569-4.367,17.525c3.991,0.354,8.325,0.302,12.458,1.183c19.045,4.06,30.805,19.597,30.815,40.622
		c0.037,80.712,0.029,161.424-0.03,242.137c-0.003,3.81-0.225,7.72-1.077,11.415c-4.296,18.623-19.678,30.211-40.155,30.241
		c-47.309,0.067-94.617,0.022-141.925,0.022c-1.852,0-3.703,0-6.088,0c3.731,15.628,7.221,30.528,10.979,45.361
		c0.26,1.027,2.506,2.151,3.864,2.196c7.503,0.248,15.038-0.165,22.524,0.277c14.122,0.832,24.595,10.286,27.055,24.13
		c0.602,3.396,0.538,6.908,0.81,10.773c9.745,0,19.298,0.027,28.85-0.01c4.821-0.02,8.422,1.898,10.065,6.541
		C388.863,488.04,386.688,492.015,380.466,495.577z M453.009,290.609c0-2.306,0-4.024,0-5.746c0-58.194,0.001-116.388-0.008-174.581
		c0-1.597-0.011-3.203-0.18-4.787c-1.117-10.434-8.625-17.538-19.074-17.88c-5.431-0.178-10.884,0.178-16.301-0.131
		c-3.738-0.214-6.119,1.099-8.473,3.985c-26.358,32.333-52.76,64.636-79.418,96.723c-3.722,4.481-5.432,8.414-3.388,14.093
		c1.049,2.915,0.994,6.303,1.059,9.487c0.6,29.126-21.073,47.274-41.181,48.048c-8.44,0.323-16.913,0.082-25.364-0.143
		c-12.867-0.341-24.628,2.043-34.583,11.152c-5.558,5.084-13.462,2.343-15.429-5.007c-4.691-17.519-7.603-35.23-5.945-53.517
		c3.095-34.137,26.343-56.696,60.507-58.123c3.145-0.131,4.821-1.279,6.471-3.773c12.871-19.452,25.885-38.81,38.84-58.205
		c0.85-1.272,1.592-2.618,2.816-4.645c-2.459,0-4.161,0-5.863,0c-79.295,0-158.592-0.003-237.888,0.004
		c-15.167,0.002-22.597,7.458-22.602,22.716C46.99,168.475,47,226.667,47,284.861c0,1.721,0,3.442,0,5.461
		c1.931,0.118,3.331,0.268,4.729,0.275c7.513,0.042,15.036-0.163,22.539,0.135c5.973,0.237,9.854,4.409,9.749,9.724
		c-0.105,5.379-4.07,9.114-10.103,9.297c-4.472,0.133-8.951,0.037-13.428,0.04c-4.393,0.005-8.787,0.003-13.484,0.003
		c0,14.948-0.065,28.999,0.018,43.053c0.08,13.531,7.969,21.584,21.463,21.589c121.023,0.048,242.045,0.048,363.069-0.002
		c13.468-0.005,21.347-8.075,21.437-21.619c0.085-12.949,0.029-25.899,0.003-38.849c-0.003-1.227-0.24-2.453-0.42-4.172
		c-2.292,0-4.33,0-6.367,0c-96.723,0-193.445,0-290.167-0.008c-2.076,0-4.172,0.063-6.224-0.192
		c-4.537-0.567-7.843-4.183-8.156-8.678c-0.309-4.441,2.522-8.669,6.926-9.684c2.454-0.567,5.068-0.602,7.609-0.602
		c96.722-0.028,193.445-0.023,290.167-0.023C448.393,290.609,450.426,290.609,453.009,290.609z M344.957,139.377
		c3.301-4.014,6.23-7.576,9.155-11.14c18.039-21.979,36.043-43.987,54.133-65.922c5.588-6.776,7.799-14.27,5.117-22.743
		c-2.878-9.093-9.405-14.458-18.712-15.707c-9.579-1.286-17.094,2.723-22.46,10.743c-18.025,26.937-36.054,53.872-54.067,80.816
		c-0.58,0.868-1.006,1.837-1.57,2.883C326.041,125.346,335.257,132.182,344.957,139.377z M226.091,247.355
		c13.596-6.694,27.517-7.366,41.682-6.544c4.459,0.259,8.949,0.493,13.399,0.246c13.524-0.753,23.444-7.992,25.793-20.083
		c1.146-5.896,0.153-12.298-0.501-18.403c-0.216-2.018-2.031-4.314-3.76-5.645c-9.613-7.396-19.403-14.561-29.192-21.726
		c-1.223-0.896-2.747-1.762-4.202-1.903c-19.015-1.851-37.618,10.584-43.092,28.9C221.801,216.982,223.133,231.839,226.091,247.355z
		 M328.242,476.172c1.342-11.765-2.063-15.665-13.398-15.668c-43.286-0.005-86.571-0.007-129.857,0
		c-11.225,0.003-14.863,4.303-13.092,15.668C223.877,476.172,275.895,476.172,328.242,476.172z M236.794,393.813
		c-3.754,15.817-7.423,31.28-11.196,47.17c16.49,0,32.354,0,48.824,0c-3.817-16.022-7.526-31.593-11.236-47.17
		C254.205,393.813,245.771,393.813,236.794,393.813z M332.778,154.251c-9.263-6.869-18.046-13.38-27.145-20.126
		c-6.264,9.348-12.188,18.192-18.313,27.335c8.21,6.09,16.248,12.054,24.574,18.231
		C318.893,171.167,325.664,162.917,332.778,154.251z"/>
	<path fill-rule="evenodd" clip-rule="evenodd" d="M112.745,309.721c-5.273-0.048-9.44-4.2-9.464-9.435
		c-0.024-5.139,4.246-9.461,9.427-9.544c5.347-0.082,9.813,4.417,9.69,9.762C122.277,305.733,118.051,309.768,112.745,309.721z"/>
</g>
</svg>
