<?xml version="1.0" encoding="utf-8"?>
<!-- Generator: Adobe Illustrator 16.0.0, SVG Export Plug-In . SVG Version: 6.00 Build 0)  -->
<!DOCTYPE svg PUBLIC "-//W3C//DTD SVG 1.1//EN" "http://www.w3.org/Graphics/SVG/1.1/DTD/svg11.dtd">
<svg version="1.1" id="Layer_1" xmlns="http://www.w3.org/2000/svg" xmlns:xlink="http://www.w3.org/1999/xlink" x="0px" y="0px"
	 width="500px" height="500px" fill="#f2e3b3" viewBox="0 0 500 500" enable-background="new 0 0 500 500" xml:space="preserve">
<g>
	<path fill-rule="evenodd" clip-rule="evenodd" d="M281.816,3.182c9.431,2.053,17.953,5.663,24.412,13.292
		c6.434,7.602,9.241,16.4,9.285,26.187c0.061,13.657,0.024,27.313,0.014,40.97c-0.007,8.093-3.184,12.599-9.113,12.994
		c-5.861,0.391-9.514-3.781-10.415-12.154c-90.98,0-181.993,0-273.271,0c0,107.074,0,214.01,0,321.298c68.374,0,136.737,0,206,0
		c-6.331-10.982-12.511-21.701-18.902-32.789c-3.023,1.542-5.809,3.015-8.638,4.401c-26.821,13.147-58.584,3.413-72.927-22.338
		c-14.449-25.936-6.42-58.083,18.95-73.874c14.573-9.07,29.69-17.262,44.485-25.979c2.145-1.264,4.195-2.991,5.729-4.944
		c35.521-45.219,70.979-90.49,106.397-135.789c2.825-3.616,6.069-6.983,10.795-5.389c2.999,1.012,6.141,3.592,7.776,6.33
		c11.021,18.465,21.701,37.136,32.369,55.811c1.448,2.537,2.61,3.556,5.906,2.841c18.629-4.045,37.548,4.553,46.822,20.885
		c9.238,16.267,6.963,36.281-5.739,50.555c-0.741,0.833-1.44,1.703-2.379,2.815c2.872,4.981,5.735,9.955,8.602,14.926
		c8.583,14.875,17.204,29.727,25.733,44.632c4.903,8.567,1.546,15.05-8.271,16.442c-36.391,5.167-72.774,10.378-109.906,15.681
		c0,1.821,0,3.676,0,5.533c0,35.187-0.6,70.388,0.214,105.556c0.526,22.769-9.373,41.007-33.929,45.745c-81.63,0-163.261,0-244.89,0
		c-6.258-2.641-12.996-4.523-18.667-8.097c-8.833-5.562-12.587-14.894-15.078-24.685c0-142.691,0-285.383,0-428.074
		c2.623-5.915,4.55-12.282,8.028-17.642C17.11,9.23,26.627,5.311,36.927,3.182C118.556,3.182,200.187,3.182,281.816,3.182z
		 M296.18,425.76c-91.496,0-182.473,0-273.374,0c-0.155,0.656-0.288,0.958-0.291,1.264c-0.023,9.316-0.047,18.634-0.05,27.952
		c-0.001,15.67,6.899,22.543,22.625,22.543c76.151,0.002,152.301,0.002,228.452-0.002c1.767,0,3.542,0.052,5.298-0.097
		c9.56-0.808,16.946-7.986,17.255-17.579C296.456,448.623,296.18,437.385,296.18,425.76z M364.968,313.444
		c-27.419-47.478-54.41-94.216-81.489-141.11c-0.784,0.703-1.195,0.975-1.482,1.344c-22.282,28.438-44.519,56.914-66.899,85.273
		c-1.839,2.332-1.224,3.813-0.019,5.891c11.679,20.124,23.408,40.217,34.805,60.498c2.005,3.565,4.199,4.029,7.702,3.48
		c10.462-1.643,20.954-3.083,31.438-4.577C314.108,320.67,339.194,317.109,364.968,313.444z M296.245,64.701
		c0-6.855,0.004-13.257,0-19.658c-0.008-15.659-6.927-22.562-22.631-22.562c-76.14-0.003-152.281-0.002-228.421,0.002
		c-1.768,0-3.541-0.049-5.298,0.093c-8.784,0.714-16.327,7.019-17.042,15.616c-0.723,8.717-0.159,17.54-0.159,26.508
		C113.872,64.701,204.731,64.701,296.245,64.701z M197.929,273.651c-14.837,8.861-29.518,16.853-43.352,26.109
		c-13.714,9.179-17.713,28.015-10.565,43.561c6.905,15.014,24.107,24.055,39.834,19.512c8.315-2.403,16.033-7.099,23.766-11.236
		c8.882-4.749,17.483-10.026,26.488-15.237C222.031,315.436,210.18,294.891,197.929,273.651z M410.896,306.875
		c-33.102-57.333-65.884-114.114-98.971-171.422c-4.618,5.888-8.49,11.198-12.781,16.146c-2.453,2.83-2.733,4.911-0.73,8.301
		c11.989,20.292,23.684,40.758,35.471,61.17c16.519,28.603,33.011,57.221,49.613,85.775c0.823,1.417,2.699,3.343,3.909,3.225
		C395.037,309.321,402.616,308.064,410.896,306.875z M263.041,347.471c0.984,1.888,1.656,3.305,2.437,4.658
		c7.201,12.493,14.47,24.946,21.615,37.472c3.573,6.261,2.819,10.001-2.593,14.736c-0.404,0.354-0.717,0.81-1.255,1.429
		c4.581,0,8.644,0,12.757,0c0-21.152,0-41.948,0-63.023C284.989,344.322,274.257,345.861,263.041,347.471z M226.481,363.292
		c7.71,13.329,15.157,26.203,22.701,39.244c6.027-3.497,11.635-6.75,17.338-10.059c-4.011-6.93-7.707-13.313-11.397-19.7
		c-3.752-6.491-7.497-12.985-11.361-19.684c-5.219,3.011-10.077,5.807-14.924,8.616C228.16,362.105,227.531,362.584,226.481,363.292
		z M389.046,230.443c6.195-8.734,6.325-19.172,0.723-27.475c-5.158-7.645-14.335-11.848-22.32-9.929
		C374.593,205.414,381.678,217.684,389.046,230.443z"/>
	<path fill-rule="evenodd" clip-rule="evenodd" d="M496.817,151.659c-3.053,2.698-5.78,5.937-9.215,8
		c-13.199,7.931-26.622,15.489-39.967,23.175c-1.25,0.72-2.489,1.488-3.814,2.038c-4.506,1.863-9.48,0.383-11.894-3.451
		c-2.663-4.229-1.911-9.191,2.018-12.547c1.209-1.032,2.602-1.873,3.984-2.673c14.023-8.115,28.048-16.231,42.105-24.287
		c7.933-4.547,12.479-3.168,16.782,4.925C496.817,148.445,496.817,150.052,496.817,151.659z"/>
	<path fill-rule="evenodd" clip-rule="evenodd" d="M118.875,131.524c-20.72,0-41.44,0.005-62.161-0.009
		c-1.763,0-3.555,0.045-5.284-0.236c-4.386-0.713-7.513-4.211-7.837-8.524c-0.353-4.686,2.217-8.495,6.76-9.813
		c1.37-0.397,2.833-0.67,4.253-0.672c43.208-0.035,86.414-0.031,129.622-0.012c1.111,0,2.243,0.149,3.329,0.39
		c5.168,1.15,8.237,5.034,7.906,9.92c-0.331,4.892-3.917,8.594-9.131,8.837c-5.61,0.262-11.24,0.112-16.861,0.115
		C152.604,131.529,135.739,131.524,118.875,131.524z"/>
	<path fill-rule="evenodd" clip-rule="evenodd" d="M99.35,177.8c-14.927-0.001-29.853-0.027-44.781,0.014
		c-4.332,0.013-7.902-1.247-10.006-5.314c-2.674-5.169-0.106-11.517,5.524-13.18c2.109-0.623,4.42-0.768,6.64-0.772
		c28.571-0.049,57.142-0.036,85.712-0.021c1.598,0,3.227-0.003,4.788,0.281c5.5,1.001,8.656,4.843,8.375,10.005
		c-0.273,5.045-3.995,8.757-9.545,8.896c-8.341,0.209-16.691,0.082-25.037,0.089C113.796,177.807,106.573,177.802,99.35,177.8z"/>
	<path fill-rule="evenodd" clip-rule="evenodd" d="M126.098,224.073c-11.706-0.001-23.415,0.131-35.117-0.046
		c-8.478-0.128-13.486-8.1-8.798-14.378c1.82-2.438,5.768-4.586,8.781-4.634c23.727-0.374,47.463-0.293,71.195-0.149
		c6.263,0.038,10.519,4.275,10.538,9.617c0.019,5.549-4.403,9.52-10.999,9.569C149.831,224.139,137.963,224.076,126.098,224.073z"/>
	<path fill-rule="evenodd" clip-rule="evenodd" d="M455.701,220.759c7.801,2.219,17.875,4.776,27.723,8.02
		c4.661,1.536,6.478,6.595,5.095,11.088c-1.441,4.686-5.9,7.749-10.8,6.596c-9.335-2.197-18.632-4.621-27.804-7.412
		c-5.193-1.58-7.462-6.457-6.226-11.462C444.765,223.244,448.68,220.442,455.701,220.759z"/>
	<path fill-rule="evenodd" clip-rule="evenodd" d="M415.71,111.654c-2.8,9.831-5.318,19.754-8.525,29.451
		c-1.425,4.307-6.518,6.043-10.842,4.823c-4.237-1.197-7.604-4.939-6.664-9.303c2.183-10.133,4.866-20.188,7.973-30.077
		c1.292-4.111,6.396-5.819,10.46-4.74C412.475,102.966,415.241,106.789,415.71,111.654z"/>
	<path fill-rule="evenodd" clip-rule="evenodd" d="M43.486,214.612c-0.054-5.412,4.356-9.803,9.769-9.728
		c5.137,0.072,9.574,4.429,9.656,9.483c0.085,5.272-4.466,9.719-9.883,9.655C47.69,223.96,43.538,219.866,43.486,214.612z"/>
	<path fill-rule="evenodd" clip-rule="evenodd" d="M195.521,168.25c-0.007,5.161-4.37,9.499-9.533,9.481
		c-5.202-0.018-9.434-4.309-9.415-9.545c0.019-5.151,4.412-9.582,9.477-9.557C191.117,158.655,195.527,163.135,195.521,168.25z"/>
	<path fill-rule="evenodd" clip-rule="evenodd" d="M159.317,459.821c-5.026-0.021-9.547-4.561-9.536-9.579
		c0.012-5.109,4.412-9.436,9.586-9.426c5.159,0.012,9.571,4.392,9.551,9.478C168.897,455.296,164.317,459.841,159.317,459.821z"/>
	<path fill-rule="evenodd" clip-rule="evenodd" d="M159.371,34.052c11.083,0,22.167-0.104,33.251,0.035
		c8.058,0.1,12.862,6.263,10.288,12.929c-1.557,4.03-4.724,6.21-8.901,6.229c-23.13,0.105-46.262,0.147-69.391-0.026
		c-5.605-0.042-9.559-4.443-9.537-9.542c0.022-5.262,4.124-9.447,10.078-9.551c11.401-0.199,22.808-0.058,34.212-0.058
		C159.371,34.064,159.371,34.057,159.371,34.052z"/>
</g>
</svg>
