<?xml version="1.0" encoding="utf-8"?>
<!-- Generator: Adobe Illustrator 16.0.0, SVG Export Plug-In . SVG Version: 6.00 Build 0)  -->
<!DOCTYPE svg PUBLIC "-//W3C//DTD SVG 1.1//EN" "http://www.w3.org/Graphics/SVG/1.1/DTD/svg11.dtd">
<svg version="1.1" id="Layer_1" xmlns="http://www.w3.org/2000/svg" xmlns:xlink="http://www.w3.org/1999/xlink" x="0px" y="0px"
	 width="20px" height="20px" viewBox="0 0 20 20" enable-background="new 0 0 20 20" xml:space="preserve">
<g>
	<path fill-rule="evenodd" clip-rule="evenodd" d="M10.228,0.276c0.38,0,0.759,0,1.14,0c0.098,0.015,0.196,0.034,0.296,0.046
		c2.174,0.277,3.948,1.266,5.271,3.016c1.204,1.593,1.729,3.398,1.49,5.388c-0.215,1.825-1.031,3.37-2.322,4.67
		c-0.101,0.103-0.146,0.201-0.146,0.347c0.005,1.475,0.005,2.95,0.002,4.428c-0.001,0.799-0.423,1.338-1.198,1.539
		c-0.018,0.006-0.031,0.018-0.047,0.027c-2.256,0-4.51,0-6.766,0c-0.509-0.174-0.731-0.527-0.69-1.059
		c0.012-0.153,0.002-0.306,0.002-0.458c0-0.213,0-0.426,0-0.65c-0.095,0-0.164,0-0.232,0c-0.577,0-1.153,0.011-1.729-0.003
		c-1.051-0.027-1.939-0.874-1.991-1.923c-0.032-0.633-0.013-1.269-0.017-1.901c0-0.074,0-0.147,0-0.24c-0.299,0-0.576,0-0.854,0
		c-0.264-0.002-0.496-0.096-0.692-0.27c-0.263-0.233-0.294-0.478-0.105-0.773c0.512-0.799,1.028-1.596,1.533-2.399
		c0.05-0.078,0.074-0.203,0.054-0.293c-0.231-1-0.269-2.002-0.113-3.017C3.575,3.726,5.901,1.2,8.885,0.506
		C9.326,0.403,9.78,0.351,10.228,0.276z M5.571,7.791c-0.011,2.844,2.306,5.179,5.156,5.194c2.857,0.015,5.192-2.3,5.206-5.16
		c0.012-2.878-2.284-5.191-5.173-5.21C7.911,2.595,5.583,4.92,5.571,7.791z"/>
	<path fill-rule="evenodd" clip-rule="evenodd" d="M8.121,5.368C8.388,5.425,8.595,5.48,8.807,5.512
		c0.082,0.012,0.179-0.01,0.255-0.047C9.22,5.387,9.362,5.271,9.524,5.206c0.15-0.058,0.205-0.155,0.246-0.298
		C9.828,4.709,9.899,4.51,9.993,4.326c0.125-0.245,0.339-0.359,0.621-0.36c0.694-0.002,0.899,0.131,1.081,0.801
		c0.066,0.246,0.195,0.368,0.4,0.51c0.335,0.231,0.639,0.248,1.016,0.152c0.489-0.125,0.7,0.016,0.999,0.528
		c0.208,0.36,0.201,0.651-0.126,0.979c-0.28,0.279-0.405,0.559-0.372,0.96c0.019,0.239,0.034,0.427,0.226,0.594
		c0.133,0.119,0.243,0.278,0.324,0.439c0.254,0.499-0.213,1.267-0.772,1.263c-0.218,0-0.438-0.052-0.651-0.104
		c-0.133-0.033-0.231-0.038-0.344,0.06c-0.107,0.094-0.236,0.182-0.37,0.226c-0.197,0.064-0.282,0.191-0.31,0.381
		c-0.005,0.037-0.02,0.073-0.03,0.108c-0.249,0.797-0.562,0.821-1.282,0.724c-0.147-0.02-0.314-0.176-0.398-0.314
		C9.88,11.072,9.83,10.83,9.735,10.61c-0.031-0.072-0.093-0.141-0.158-0.183c-0.153-0.1-0.329-0.168-0.472-0.278
		c-0.116-0.089-0.211-0.092-0.346-0.059c-0.212,0.052-0.433,0.09-0.652,0.102c-0.243,0.012-0.434-0.101-0.569-0.312
		C7.14,9.261,7.158,8.987,7.687,8.47C7.843,8.316,7.938,8.173,7.88,7.947c-0.025-0.102-0.027-0.221,0.002-0.32
		c0.064-0.22-0.032-0.361-0.19-0.485C7.658,7.114,7.629,7.079,7.599,7.046c-0.51-0.579-0.417-0.864,0.059-1.46
		C7.76,5.459,7.983,5.429,8.121,5.368z M8.857,7.801c0.001,1.06,0.839,1.902,1.891,1.901c1.043,0,1.897-0.85,1.904-1.894
		c0.008-1.049-0.854-1.911-1.908-1.909C9.691,5.901,8.857,6.742,8.857,7.801z"/>
</g>
</svg>
