<?xml version="1.0" standalone="no"?><svg xmlns="http://www.w3.org/2000/svg" viewBox="0 0 1440 320"><path fill="#1d2b37" fill-opacity="1" d="M0,224L0,32L45,32L45,96L90,96L90,32L135,32L135,32L180,32L180,224L225,224L225,128L270,128L270,320L315,320L315,128L360,128L360,224L405,224L405,64L450,64L450,32L495,32L495,160L540,160L540,64L585,64L585,32L630,32L630,32L675,32L675,64L720,64L720,160L765,160L765,96L810,96L810,160L855,160L855,256L900,256L900,224L945,224L945,96L990,96L990,256L1035,256L1035,96L1080,96L1080,96L1125,96L1125,96L1170,96L1170,96L1215,96L1215,224L1260,224L1260,128L1305,128L1305,224L1350,224L1350,32L1395,32L1395,32L1440,32L1440,0L1395,0L1395,0L1350,0L1350,0L1305,0L1305,0L1260,0L1260,0L1215,0L1215,0L1170,0L1170,0L1125,0L1125,0L1080,0L1080,0L1035,0L1035,0L990,0L990,0L945,0L945,0L900,0L900,0L855,0L855,0L810,0L810,0L765,0L765,0L720,0L720,0L675,0L675,0L630,0L630,0L585,0L585,0L540,0L540,0L495,0L495,0L450,0L450,0L405,0L405,0L360,0L360,0L315,0L315,0L270,0L270,0L225,0L225,0L180,0L180,0L135,0L135,0L90,0L90,0L45,0L45,0L0,0L0,0Z"></path></svg>