<svg xmlns="http://www.w3.org/2000/svg" shape-rendering="geometricPrecision" text-rendering="geometricPrecision" fill="#F24968" image-rendering="optimizeQuality" fill-rule="evenodd" clip-rule="evenodd" viewBox="0 0 415 512.571"><path fill-rule="nonzero" d="M308.05 239.595c29.655-36.015 70.851-93.178 101.838-124.165 4.628-7.711 6.07-16.394 4.501-24.453-1.608-8.3-6.323-15.885-13.944-21.102l-2.6-1.589L262.878 0l-11.746 23.296c12.434 6.292 93.43 46.069 123.485 61.863-113.328 8.43-202.581 50.997-265.629 119.244C39.366 279.759 2.091 386.158 0 512.16l26.047.411c1.984-119.465 36.915-219.904 102.141-290.501 59.271-64.156 143.951-103.929 252.057-111.185l-92.32 112.157 20.125 16.553z"/></svg>