<svg width="163" height="53" viewBox="0 0 163 53" fill="none" xmlns="http://www.w3.org/2000/svg">
<path d="M19.9979 0H21.4418C26.4547 0.10921 31.3859 2.1296 34.9276 5.70623C33.6199 7.04406 32.2849 8.32728 31.0044 9.6651C29.0156 7.86314 26.6182 6.4707 24.0027 5.97926C20.1341 5.16018 15.9658 5.89735 12.7237 8.10886C9.18201 10.4296 6.78454 14.3611 6.26691 18.5657C5.69478 22.7157 6.86627 27.0841 9.56343 30.3058C12.1516 33.4456 16.102 35.4114 20.1886 35.5479C24.0027 35.7663 27.9804 34.5923 30.7592 31.9167C32.9388 30.0328 33.9468 27.166 34.2737 24.3812C29.7512 24.3812 25.2287 24.4085 20.7062 24.3812V18.7569H39.7498C40.7305 24.7907 39.3138 31.5891 34.7369 35.9029C31.6855 38.9607 27.4627 40.7627 23.1582 41.1176C18.9898 41.5272 14.6853 40.7354 10.9801 38.715C6.53935 36.3397 2.99763 32.3262 1.25402 27.6029C-0.380623 23.2618 -0.407867 18.3473 1.1178 13.9789C2.50724 9.99273 5.17715 6.4707 8.60989 4.01347C11.9064 1.58355 15.9113 0.245723 19.9979 0Z" fill="#3780FF"/>
<path d="M129.556 1.76672H135.444V40.6266C133.491 40.6266 131.509 40.6538 129.556 40.5994C129.583 27.6733 129.556 14.72 129.556 1.76672Z" fill="#38B137"/>
<path d="M53.0678 14.964C56.6585 14.2824 60.5484 15.0459 63.5135 17.2C66.2065 19.1087 68.0835 22.1081 68.6547 25.3801C69.3892 29.1703 68.4643 33.3149 66.0161 36.3143C63.3775 39.6681 59.0523 41.4678 54.836 41.1951C50.9733 40.977 47.2193 39.041 44.9344 35.878C42.3501 32.3878 41.7245 27.5888 43.139 23.4987C44.5535 19.1087 48.5523 15.7548 53.0678 14.964ZM53.8839 20.1448C52.415 20.5266 51.0549 21.3718 50.0756 22.5716C47.437 25.7346 47.6002 30.8881 50.5108 33.833C52.1702 35.5235 54.6728 36.3143 56.9849 35.8507C59.1339 35.469 61.0109 34.0238 62.0446 32.1151C63.8399 28.8703 63.3231 24.3985 60.5756 21.8627C58.8075 20.2266 56.2233 19.5449 53.8839 20.1448Z" fill="#FA3913"/>
<path d="M81.9228 14.9662C86.0334 14.1751 90.5251 15.3208 93.6013 18.2123C98.6102 22.7133 99.1546 31.1425 94.8807 36.3255C92.2946 39.5989 88.1023 41.3993 83.9645 41.2084C80.0172 41.0993 76.1244 39.1352 73.7833 35.889C71.1427 32.3155 70.571 27.4053 72.0683 23.2316C73.5655 18.9761 77.4855 15.73 81.9228 14.9662ZM82.7395 20.1491C81.2695 20.531 79.9083 21.3767 78.9283 22.5497C76.315 25.6595 76.4239 30.7333 79.2278 33.7067C80.8884 35.4798 83.4745 36.3528 85.8701 35.8617C87.9934 35.4526 89.899 34.0341 90.9335 32.1245C92.7029 28.8511 92.1857 24.3774 89.409 21.8404C87.6395 20.2037 85.0534 19.549 82.7395 20.1491Z" fill="#FCBD06"/>
<path d="M106.043 16.5437C109.242 14.5855 113.499 14.0416 116.948 15.7278C118.033 16.1901 118.923 16.9788 119.786 17.7676C119.814 17.0332 119.786 16.2717 119.814 15.5102C121.678 15.5374 123.542 15.5102 125.433 15.5374V39.5251C125.406 43.1423 124.46 46.977 121.789 49.6151C118.868 52.5252 114.389 53.4227 110.355 52.8244C106.043 52.1989 102.287 49.1256 100.618 45.2364C102.287 44.4477 104.04 43.8222 105.765 43.0879C106.738 45.318 108.714 47.2218 111.19 47.657C113.666 48.0921 116.531 47.4938 118.145 45.4812C119.869 43.4142 119.869 40.5858 119.786 38.0565C118.506 39.2803 117.032 40.3682 115.251 40.7762C111.384 41.8368 107.128 40.5314 104.151 37.9749C101.147 35.4184 99.3661 31.4748 99.533 27.5584C99.6165 23.1253 102.176 18.8554 106.043 16.5437ZM111.802 20.0249C110.105 20.2969 108.519 21.2216 107.434 22.4998C104.819 25.5459 104.819 30.4141 107.462 33.4058C108.964 35.1736 111.384 36.1527 113.721 35.9079C115.919 35.6903 117.95 34.3305 119.035 32.4539C120.871 29.2719 120.565 24.9475 118.089 22.1735C116.559 20.46 114.111 19.6169 111.802 20.0249Z" fill="#3780FF"/>
<path d="M141.983 17.9554C145.293 14.9021 150.396 13.8661 154.644 15.4746C158.671 16.974 161.237 20.7634 162.533 24.6618C156.547 27.1154 150.589 29.5417 144.603 31.9952C145.431 33.5491 146.7 34.9668 148.41 35.5392C150.81 36.3844 153.679 36.0845 155.692 34.5033C156.492 33.9035 157.127 33.113 157.734 32.3496C159.251 33.3583 160.768 34.3397 162.285 35.3484C160.133 38.538 156.52 40.7735 152.63 41.1279C148.327 41.6459 143.748 40.0102 140.962 36.6842C136.383 31.45 136.824 22.6717 141.983 17.9554ZM144.934 22.9988C143.996 24.3347 143.61 25.9704 143.638 27.5788C147.637 25.9431 151.637 24.3074 155.637 22.6444C154.975 21.1178 153.375 20.1909 151.748 19.9455C149.127 19.4821 146.396 20.8724 144.934 22.9988Z" fill="#FA3913"/>
</svg>
